<?xml version="1.0" encoding="UTF-8"?>
<!DOCTYPE svg PUBLIC "-//W3C//DTD SVG 1.1//EN" "http://www.w3.org/Graphics/SVG/1.1/DTD/svg11.dtd">
<svg xmlns="http://www.w3.org/2000/svg" version="1.1" width="328px" height="319px" style="shape-rendering:geometricPrecision; text-rendering:geometricPrecision; image-rendering:optimizeQuality; fill-rule:evenodd; clip-rule:evenodd" xmlns:xlink="http://www.w3.org/1999/xlink">
<g><path style="opacity:1" fill="#0c1225" d="M 135.5,-0.5 C 135.833,-0.5 136.167,-0.5 136.5,-0.5C 136.315,0.170143 135.981,0.170143 135.5,-0.5 Z"/></g>
<g><path style="opacity:1" fill="#0c1225" d="M 174.5,-0.5 C 174.833,-0.5 175.167,-0.5 175.5,-0.5C 175.5,-0.166667 175.5,0.166667 175.5,0.5C 175.167,0.166667 174.833,-0.166667 174.5,-0.5 Z"/></g>
<g><path style="opacity:1" fill="#0c1225" d="M 137.5,0.5 C 138.833,1.16667 138.833,1.16667 137.5,0.5 Z"/></g>
<g><path style="opacity:1" fill="#0c1225" d="M 141.5,1.5 C 141.897,0.474981 142.563,0.308314 143.5,1C 142.906,1.46434 142.239,1.63101 141.5,1.5 Z"/></g>
<g><path style="opacity:1" fill="#0c1225" d="M 146.5,1.5 C 146.897,0.474981 147.563,0.308314 148.5,1C 147.906,1.46434 147.239,1.63101 146.5,1.5 Z"/></g>
<g><path style="opacity:1" fill="#0c1225" d="M 184.5,4.5 C 184.783,5.28913 185.283,5.9558 186,6.5C 187.049,5.48288 188.216,5.31621 189.5,6C 189.167,6.33333 188.833,6.66667 188.5,7C 189.76,8.11305 190.927,8.27972 192,7.5C 193.7,10.7719 196.2,11.9385 199.5,11C 198.939,12.5655 199.606,13.8989 201.5,15C 202.931,15.4652 204.097,16.2986 205,17.5C 205.718,16.5494 206.551,16.3828 207.5,17C 208.667,18.1667 209.833,19.3333 211,20.5C 211.617,21.4491 211.451,22.2825 210.5,23C 211.094,23.4643 211.761,23.631 212.5,23.5C 212.328,24.4916 212.662,25.1583 213.5,25.5C 214.313,26.6527 215.313,26.6527 216.5,25.5C 217.382,26.7598 218.382,27.9264 219.5,29C 218.226,29.9772 218.226,30.8106 219.5,31.5C 221.27,32.764 222.937,34.264 224.5,36C 224.167,36.3333 223.833,36.6667 223.5,37C 224.733,38.6667 226.067,40.1667 227.5,41.5C 227.369,42.2389 227.536,42.9056 228,43.5C 228.708,42.6195 229.542,41.9528 230.5,41.5C 231.355,43.7868 231.522,46.1201 231,48.5C 231.77,47.4019 232.603,47.4019 233.5,48.5C 232.375,49.6522 232.375,50.6522 233.5,51.5C 234.131,54.2545 235.798,56.0878 238.5,57C 236.397,57.8534 236.397,59.02 238.5,60.5C 239.32,62.1401 240.153,63.8068 241,65.5C 241.667,66.8333 242.333,66.8333 243,65.5C 243.492,66.549 243.326,67.549 242.5,68.5C 243.61,70.2004 244.943,71.5337 246.5,72.5C 245.557,74.0012 245.891,75.3346 247.5,76.5C 249.954,78.6013 251.287,80.9347 251.5,83.5C 253.233,88.3616 256.233,92.8616 260.5,97C 260.043,97.414 259.709,97.914 259.5,98.5C 261.543,101.011 263.209,103.678 264.5,106.5C 265.32,108.14 266.153,109.807 267,111.5C 268.417,110.922 269.25,109.922 269.5,108.5C 269.833,108.5 270.167,108.5 270.5,108.5C 270.414,109.496 270.748,110.329 271.5,111C 270.313,112.019 269.313,113.186 268.5,114.5C 268.624,115.107 268.957,115.44 269.5,115.5C 270.629,118.918 272.629,121.751 275.5,124C 274.72,125.073 274.887,126.24 276,127.5C 276.914,126.346 277.747,126.513 278.5,128C 278.043,128.414 277.709,128.914 277.5,129.5C 279.866,134.486 282.533,139.152 285.5,143.5C 287.137,147.118 289.137,150.451 291.5,153.5C 295.496,161.17 299.329,168.503 303,175.5C 303.671,176.252 304.504,176.586 305.5,176.5C 304.557,178.001 304.891,179.335 306.5,180.5C 307.429,181.315 308.429,182.148 309.5,183C 308.226,183.977 308.226,184.811 309.5,185.5C 309.328,186.492 309.662,187.158 310.5,187.5C 310.75,189.674 311.75,191.341 313.5,192.5C 313.369,193.239 313.536,193.906 314,194.5C 317.11,193.327 317.277,193.827 314.5,196C 315.399,197.652 316.399,199.152 317.5,200.5C 318.522,204.463 319.855,207.796 321.5,210.5C 323.21,217.358 325.21,224.025 327.5,230.5C 327.5,230.833 327.5,231.167 327.5,231.5C 326.167,232.167 326.167,232.833 327.5,233.5C 327.5,240.5 327.5,247.5 327.5,254.5C 326.167,254.833 326.167,255.167 327.5,255.5C 327.5,255.833 327.5,256.167 327.5,256.5C 326.028,258.706 325.695,261.039 326.5,263.5C 324.332,265.478 323.665,267.812 324.5,270.5C 322.364,271.969 321.03,273.969 320.5,276.5C 319.326,277.514 318.66,278.847 318.5,280.5C 317.167,280.5 316.5,281.167 316.5,282.5C 315.5,282.833 314.833,283.5 314.5,284.5C 313.662,284.842 313.328,285.508 313.5,286.5C 311.424,288.468 310.09,290.468 309.5,292.5C 309.44,291.957 309.107,291.624 308.5,291.5C 306.972,292.861 305.305,294.028 303.5,295C 303.381,296.145 303.048,297.312 302.5,298.5C 300.166,297.159 298.499,297.826 297.5,300.5C 295.62,300.229 294.287,300.896 293.5,302.5C 289.016,304.629 284.349,306.463 279.5,308C 280.167,308.333 280.833,308.667 281.5,309C 279.765,309.651 278.098,309.485 276.5,308.5C 267.019,311.178 257.686,313.178 248.5,314.5C 191.97,313.168 135.47,313.168 79,314.5C 68.1595,312.763 57.6595,310.763 47.5,308.5C 46.6868,307.347 45.6868,307.347 44.5,308.5C 42.6769,307.509 41.1769,306.176 40,304.5C 39.6667,304.833 39.3333,305.167 39,305.5C 38.1841,304.177 37.0174,303.511 35.5,303.5C 34.4863,302.326 33.153,301.66 31.5,301.5C 31.1583,300.662 30.4916,300.328 29.5,300.5C 29.1667,299.5 28.5,298.833 27.5,298.5C 26.6522,297.375 25.6522,297.375 24.5,298.5C 23.4019,297.603 23.4019,296.77 24.5,296C 23.7471,294.513 22.9138,294.346 22,295.5C 21.3333,292.833 20.6667,292.833 20,295.5C 18.3831,294.464 18.2164,293.297 19.5,292C 17,290.167 14.8333,288 13,285.5C 11.5319,287.036 10.0319,287.37 8.5,286.5C 12.4937,285.627 12.4937,284.46 8.5,283C 11.0176,281.86 11.0176,280.694 8.5,279.5C 8.67158,278.508 8.33825,277.842 7.5,277.5C 6.79105,276.596 5.79105,276.263 4.5,276.5C 4.91753,275.778 5.5842,275.278 6.5,275C 3.90827,271.542 2.57494,267.876 2.5,264C 1.23289,260.812 0.232892,257.645 -0.5,254.5C -0.5,247.5 -0.5,240.5 -0.5,233.5C 1.69275,222.594 5.02609,212.261 9.5,202.5C 8.57211,201.232 8.40544,199.899 9,198.5C 9.33333,199.167 9.66667,199.833 10,200.5C 11.7123,198.582 12.2123,196.582 11.5,194.5C 12.8333,194.5 13.5,193.833 13.5,192.5C 15.779,191.132 16.4457,189.298 15.5,187C 16.1258,186.25 16.6258,185.416 17,184.5C 18.6665,185.34 18.8331,184.84 17.5,183C 18.3279,182.085 19.3279,181.419 20.5,181C 19.944,180.617 19.6107,180.117 19.5,179.5C 20.2216,179.082 20.7216,178.416 21,177.5C 21.3333,177.833 21.6667,178.167 22,178.5C 24.0414,174.916 26.208,171.416 28.5,168C 27.944,167.617 27.6107,167.117 27.5,166.5C 29.2624,165.738 30.2624,164.404 30.5,162.5C 31.4013,161.71 32.0679,160.71 32.5,159.5C 33.6737,158.486 34.3404,157.153 34.5,155.5C 36.8232,151.577 39.1565,147.577 41.5,143.5C 42.7368,142.035 43.7368,140.368 44.5,138.5C 45.1338,135.55 46.8005,132.717 49.5,130C 48.1669,128.16 48.3335,127.66 50,128.5C 51.6501,127.109 52.1501,125.609 51.5,124C 53.6192,123.658 53.9526,122.825 52.5,121.5C 54.7019,120.208 56.3685,118.374 57.5,116C 56.8617,114.293 56.8617,112.46 57.5,110.5C 58.4959,110.414 59.3292,110.748 60,111.5C 61.113,110.24 61.2797,109.073 60.5,108C 61.4158,107.722 62.0825,107.222 62.5,106.5C 63.81,104.565 65.1433,102.565 66.5,100.5C 66.3764,99.8933 66.0431,99.56 65.5,99.5C 65.5412,97.2547 66.3745,96.5881 68,97.5C 68.4828,96.552 68.6495,95.552 68.5,94.5C 70.4974,92.487 72.164,90.1537 73.5,87.5C 73.3764,86.8933 73.0431,86.56 72.5,86.5C 71.1667,84.5 71.1667,82.5 72.5,80.5C 73.4584,80.0472 74.2917,79.3805 75,78.5C 75.3333,79.1667 75.6667,79.8333 76,80.5C 79.6426,78.0163 81.4759,74.8497 81.5,71C 83.0629,70.2411 84.0629,69.0744 84.5,67.5C 87.4395,63.0542 90.4395,58.0542 93.5,52.5C 93.1373,51.8165 92.8039,51.1499 92.5,50.5C 93.3149,49.5707 94.1482,48.5707 95,47.5C 95.3333,47.8333 95.6667,48.1667 96,48.5C 97.0945,46.9221 97.9278,45.2554 98.5,43.5C 99.4013,42.7095 100.068,41.7095 100.5,40.5C 101.364,39.3117 102.364,38.1451 103.5,37C 102.72,35.927 102.887,34.7604 104,33.5C 104.333,34.1667 104.667,34.8333 105,35.5C 105.615,33.8839 106.615,32.5505 108,31.5C 107.689,30.0654 107.855,28.7321 108.5,27.5C 113.532,24.8601 118.199,21.1934 122.5,16.5C 124.749,15.9202 126.415,14.5869 127.5,12.5C 131.015,11.9085 133.682,10.0752 135.5,7C 137.019,7.33077 138.352,7.1641 139.5,6.5C 140.71,6.06795 141.71,5.40128 142.5,4.5C 143.117,4.61071 143.617,4.94404 144,5.5C 152.763,1.48317 161.763,0.483167 171,2.5C 172.011,2.10812 172.511,1.44145 172.5,0.5C 176.251,3.30691 180.251,4.64024 184.5,4.5 Z M 181.5,96.5 C 184.535,97.9558 185.869,100.123 185.5,103C 188.174,107.781 191.34,112.281 195,116.5C 195.36,118.421 196.194,120.088 197.5,121.5C 196.197,123.589 196.697,125.256 199,126.5C 200.666,125.66 200.833,126.16 199.5,128C 203.181,132.359 206.514,137.025 209.5,142C 208.446,143.388 208.28,144.888 209,146.5C 210,146.5 211,146.5 212,146.5C 213.852,148.23 213.686,149.396 211.5,150C 212.766,150.309 213.933,150.809 215,151.5C 218.109,156.171 220.442,161.171 222,166.5C 226.682,171.226 229.682,176.56 231,182.5C 232.666,181.66 232.833,182.16 231.5,184C 233.493,184.647 235.159,186.313 236.5,189C 235.167,190.84 235.334,191.34 237,190.5C 237.791,191.745 238.291,193.078 238.5,194.5C 240.779,195.868 241.446,197.702 240.5,200C 241.253,201.487 242.086,201.654 243,200.5C 242.421,203.657 243.754,205.991 247,207.5C 252.121,216.763 252.788,226.096 249,235.5C 248.346,234.304 247.846,234.304 247.5,235.5C 248.833,236.5 248.833,237.5 247.5,238.5C 246.335,239.584 245.002,240.417 243.5,241C 244.34,242.666 243.84,242.833 242,241.5C 240.055,242.863 237.888,243.697 235.5,244C 236.833,244.333 238.167,244.667 239.5,245C 237.283,246.275 234.949,247.275 232.5,248C 188.538,249.64 144.538,249.973 100.5,249C 95.0688,248.523 90.0688,246.856 85.5,244C 84.1667,243.333 84.1667,242.667 85.5,242C 81.6887,241.381 79.022,238.881 77.5,234.5C 78.6769,232.126 78.0102,230.293 75.5,229C 75.0066,220.489 77.1733,212.322 82,204.5C 82.9147,205.328 83.5814,206.328 84,207.5C 86.457,204.908 86.6237,202.408 84.5,200C 88.3114,200.685 88.978,199.518 86.5,196.5C 88.6667,192.833 90.8333,189.167 93,185.5C 94.6665,186.34 94.8331,185.84 93.5,184C 95.3657,180.813 97.199,177.647 99,174.5C 101.438,175.866 101.938,175.366 100.5,173C 101.53,170.44 102.697,167.94 104,165.5C 105.363,167.784 106.863,167.951 108.5,166C 107.833,164.667 107.167,163.333 106.5,162C 107.46,160.581 108.293,159.081 109,157.5C 109.667,158.833 110.333,158.833 111,157.5C 110.243,153.359 111.909,150.359 116,148.5C 116.617,147.551 116.451,146.718 115.5,146C 117.904,145.492 118.571,144.325 117.5,142.5C 120.708,136.99 124.041,132.156 127.5,128C 126.167,126.16 126.334,125.66 128,126.5C 131.468,117.588 136.134,108.921 142,100.5C 142.667,101.833 143.333,101.833 144,100.5C 144.333,101.167 144.667,101.833 145,102.5C 145.711,100.633 145.211,99.1332 143.5,98C 145,97.1667 146.167,96 147,94.5C 147.414,94.9574 147.914,95.2907 148.5,95.5C 150.028,94.1387 151.695,92.972 153.5,92C 152.833,91.6667 152.167,91.3333 151.5,91C 159.463,86.3391 167.463,86.3391 175.5,91C 173.205,91.9836 173.539,92.8169 176.5,93.5C 178.733,92.9839 180.4,93.9839 181.5,96.5 Z"/></g>
<g><path style="opacity:1" fill="#0c1225" d="M 175.5,0.5 C 176.833,1.16667 176.833,1.16667 175.5,0.5 Z"/></g>
<g><path style="opacity:1" fill="#0c1225" d="M 177.5,1.5 C 178.077,0.226712 178.743,0.226712 179.5,1.5C 179.03,2.46295 178.363,2.46295 177.5,1.5 Z"/></g>
<g><path style="opacity:1" fill="#0c1225" d="M 190.5,1.5 C 189.761,1.63101 189.094,1.46434 188.5,1C 189.437,0.308314 190.103,0.474981 190.5,1.5 Z"/></g>
<g><path style="opacity:1" fill="#0c1225" d="M 135.5,1.5 C 136.833,2.16667 136.833,2.16667 135.5,1.5 Z"/></g>
<g><path style="opacity:1" fill="#0c1225" d="M 181.5,1.5 C 182.525,1.89657 182.692,2.56323 182,3.5C 181.536,2.90558 181.369,2.23891 181.5,1.5 Z"/></g>
<g><path style="opacity:1" fill="#0c1225" d="M 185.5,2.5 C 185.897,1.47498 186.563,1.30831 187.5,2C 186.906,2.46434 186.239,2.63101 185.5,2.5 Z"/></g>
<g><path style="opacity:1" fill="#0c1225" d="M 190.5,1.5 C 191.833,2.16667 191.833,2.16667 190.5,1.5 Z"/></g>
<g><path style="opacity:1" fill="#0c1225" d="M 136.5,4.5 C 136.897,3.47498 137.563,3.30831 138.5,4C 137.906,4.46434 137.239,4.63101 136.5,4.5 Z"/></g>
<g><path style="opacity:1" fill="#0c1225" d="M 142.5,4.5 C 141.761,4.63101 141.094,4.46434 140.5,4C 141.437,3.30831 142.103,3.47498 142.5,4.5 Z"/></g>
<g><path style="opacity:1" fill="#0c1225" d="M 184.5,4.5 C 184.897,3.47498 185.563,3.30831 186.5,4C 185.906,4.46434 185.239,4.63101 184.5,4.5 Z"/></g>
<g><path style="opacity:1" fill="#0c1225" d="M 190.5,4.5 C 189.761,4.63101 189.094,4.46434 188.5,4C 189.437,3.30831 190.103,3.47498 190.5,4.5 Z"/></g>
<g><path style="opacity:1" fill="#0c1225" d="M 136.5,4.5 C 135.833,5.16667 135.833,5.16667 136.5,4.5 Z"/></g>
<g><path style="opacity:1" fill="#0c1225" d="M 190.5,4.5 C 191.833,5.16667 191.833,5.16667 190.5,4.5 Z"/></g>
<g><path style="opacity:1" fill="#0c1225" d="M 139.5,6.5 C 138.833,5.16667 138.833,5.16667 139.5,6.5 Z"/></g>
<g><path style="opacity:1" fill="#0c1225" d="M 127.5,7.5 C 128.833,8.16667 128.833,8.16667 127.5,7.5 Z"/></g>
<g><path style="opacity:1" fill="#0c1225" d="M 131.5,7.5 C 132.833,8.16667 132.833,8.16667 131.5,7.5 Z"/></g>
<g><path style="opacity:1" fill="#0c1225" d="M 198.5,7.5 C 199.833,8.16667 199.833,8.16667 198.5,7.5 Z"/></g>
<g><path style="opacity:1" fill="#0c1225" d="M 121.5,8.5 C 122.833,9.16667 122.833,9.16667 121.5,8.5 Z"/></g>
<g><path style="opacity:1" fill="#0c1225" d="M 129.5,8.5 C 130.833,9.16667 130.833,9.16667 129.5,8.5 Z"/></g>
<g><path style="opacity:1" fill="#0c1225" d="M 195.5,9.5 C 195.897,8.47498 196.563,8.30831 197.5,9C 196.906,9.46434 196.239,9.63101 195.5,9.5 Z"/></g>
<g><path style="opacity:1" fill="#0c1225" d="M 204.5,8.5 C 205.833,9.16667 205.833,9.16667 204.5,8.5 Z"/></g>
<g><path style="opacity:1" fill="#0c1225" d="M 123.5,10.5 C 124.251,9.42654 125.251,9.25988 126.5,10C 125.552,10.4828 124.552,10.6495 123.5,10.5 Z"/></g>
<g><path style="opacity:1" fill="#0c1225" d="M 200.5,10.5 C 201.251,9.42654 202.251,9.25988 203.5,10C 202.552,10.4828 201.552,10.6495 200.5,10.5 Z"/></g>
<g><path style="opacity:1" fill="#0c1225" d="M 119.5,10.5 C 120.833,11.1667 120.833,11.1667 119.5,10.5 Z"/></g>
<g><path style="opacity:1" fill="#0c1225" d="M 127.5,10.5 C 128.833,11.1667 128.833,11.1667 127.5,10.5 Z"/></g>
<g><path style="opacity:1" fill="#0c1225" d="M 206.5,10.5 C 207.833,11.1667 207.833,11.1667 206.5,10.5 Z"/></g>
<g><path style="opacity:1" fill="#0c1225" d="M 127.5,11.5 C 127.5,11.8333 127.5,12.1667 127.5,12.5C 126.83,12.0187 126.83,11.6853 127.5,11.5 Z"/></g>
<g><path style="opacity:1" fill="#0c1225" d="M 123.5,13.5 C 123.897,12.475 124.563,12.3083 125.5,13C 124.906,13.4643 124.239,13.631 123.5,13.5 Z"/></g>
<g><path style="opacity:1" fill="#0c1225" d="M 201.5,13.5 C 201.897,12.475 202.563,12.3083 203.5,13C 202.906,13.4643 202.239,13.631 201.5,13.5 Z"/></g>
<g><path style="opacity:1" fill="#0c1225" d="M 205.5,12.5 C 206.525,12.8966 206.692,13.5632 206,14.5C 205.536,13.9056 205.369,13.2389 205.5,12.5 Z"/></g>
<g><path style="opacity:1" fill="#0c1225" d="M 120.5,13.5 C 121.833,14.1667 121.833,14.1667 120.5,13.5 Z"/></g>
<g><path style="opacity:1" fill="#0c1225" d="M 122.5,14.5 C 123.833,15.1667 123.833,15.1667 122.5,14.5 Z"/></g>
<g><path style="opacity:1" fill="#0c1225" d="M 116.5,16.5 C 115.833,15.1667 115.833,15.1667 116.5,16.5 Z"/></g>
<g><path style="opacity:1" fill="#0c1225" d="M 122.5,15.5 C 122.5,15.8333 122.5,16.1667 122.5,16.5C 121.83,16.0187 121.83,15.6853 122.5,15.5 Z"/></g>
<g><path style="opacity:1" fill="#0c1225" d="M 208.5,15.5 C 209.833,16.1667 209.833,16.1667 208.5,15.5 Z"/></g>
<g><path style="opacity:1" fill="#0c1225" d="M 211.5,15.5 C 212.833,16.1667 212.833,16.1667 211.5,15.5 Z"/></g>
<g><path style="opacity:1" fill="#0c1225" d="M 214.5,15.5 C 215.833,16.1667 215.833,16.1667 214.5,15.5 Z"/></g>
<g><path style="opacity:1" fill="#0c1225" d="M 116.5,16.5 C 118.028,16.5173 118.528,17.184 118,18.5C 117.283,17.9558 116.783,17.2891 116.5,16.5 Z"/></g>
<g><path style="opacity:1" fill="#0c1225" d="M 211.5,16.5 C 210.833,17.1667 210.833,17.1667 211.5,16.5 Z"/></g>
<g><path style="opacity:1" fill="#0c1225" d="M 214.5,16.5 C 213.833,17.1667 213.833,17.1667 214.5,16.5 Z"/></g>
<g><path style="opacity:1" fill="#0c1225" d="M 112.5,19.5 C 111.475,19.1034 111.308,18.4368 112,17.5C 112.464,18.0944 112.631,18.7611 112.5,19.5 Z"/></g>
<g><path style="opacity:1" fill="#0c1225" d="M 114.5,17.5 C 116.085,18.0024 116.585,19.0024 116,20.5C 114.961,19.7562 114.461,18.7562 114.5,17.5 Z"/></g>
<g><path style="opacity:1" fill="#0c1225" d="M 112.5,19.5 C 113.525,19.8966 113.692,20.5632 113,21.5C 112.536,20.9056 112.369,20.2389 112.5,19.5 Z"/></g>
<g><path style="opacity:1" fill="#0c1225" d="M 213.5,19.5 C 214.525,19.8966 214.692,20.5632 214,21.5C 213.536,20.9056 213.369,20.2389 213.5,19.5 Z"/></g>
<g><path style="opacity:1" fill="#0c1225" d="M 212.5,22.5 C 213.833,23.1667 213.833,23.1667 212.5,22.5 Z"/></g>
<g><path style="opacity:1" fill="#0c1225" d="M 104.5,24.5 C 103.833,23.1667 103.833,23.1667 104.5,24.5 Z"/></g>
<g><path style="opacity:1" fill="#0c1225" d="M 109.5,23.5 C 110.833,24.1667 110.833,24.1667 109.5,23.5 Z"/></g>
<g><path style="opacity:1" fill="#0c1225" d="M 216.5,23.5 C 217.833,24.1667 217.833,24.1667 216.5,23.5 Z"/></g>
<g><path style="opacity:1" fill="#0c1225" d="M 219.5,23.5 C 220.833,24.1667 220.833,24.1667 219.5,23.5 Z"/></g>
<g><path style="opacity:1" fill="#0c1225" d="M 222.5,23.5 C 223.833,24.1667 223.833,24.1667 222.5,23.5 Z"/></g>
<g><path style="opacity:1" fill="#0c1225" d="M 104.5,24.5 C 105.833,25.1667 105.833,25.8333 104.5,26.5C 104.5,25.8333 104.5,25.1667 104.5,24.5 Z"/></g>
<g><path style="opacity:1" fill="#0c1225" d="M 107.5,24.5 C 108.833,25.1667 108.833,25.1667 107.5,24.5 Z"/></g>
<g><path style="opacity:1" fill="#0c1225" d="M 213.5,24.5 C 214.833,25.1667 214.833,25.1667 213.5,24.5 Z"/></g>
<g><path style="opacity:1" fill="#0c1225" d="M 222.5,24.5 C 222.5,25.1667 222.5,25.8333 222.5,26.5C 221.167,25.8333 221.167,25.1667 222.5,24.5 Z"/></g>
<g><path style="opacity:1" fill="#0c1225" d="M 104.5,26.5 C 104.631,27.2389 104.464,27.9056 104,28.5C 103.308,27.5632 103.475,26.8966 104.5,26.5 Z"/></g>
<g><path style="opacity:1" fill="#0c1225" d="M 220.5,27.5 C 219.833,26.1667 219.833,26.1667 220.5,27.5 Z"/></g>
<g><path style="opacity:1" fill="#0c1225" d="M 222.5,26.5 C 223.525,26.8966 223.692,27.5632 223,28.5C 222.536,27.9056 222.369,27.2389 222.5,26.5 Z"/></g>
<g><path style="opacity:1" fill="#0c1225" d="M 105.5,27.5 C 106.525,27.8966 106.692,28.5632 106,29.5C 105.536,28.9056 105.369,28.2389 105.5,27.5 Z"/></g>
<g><path style="opacity:1" fill="#0c1225" d="M 220.5,27.5 C 221.525,27.8966 221.692,28.5632 221,29.5C 220.536,28.9056 220.369,28.2389 220.5,27.5 Z"/></g>
<g><path style="opacity:1" fill="#0c1225" d="M 104.5,30.5 C 105.833,31.1667 105.833,31.1667 104.5,30.5 Z"/></g>
<g><path style="opacity:1" fill="#0c1225" d="M 219.5,30.5 C 220.833,31.1667 220.833,31.1667 219.5,30.5 Z"/></g>
<g><path style="opacity:1" fill="#0c1225" d="M 96.5,31.5 C 97.525,31.8966 97.6917,32.5632 97,33.5C 96.5357,32.9056 96.369,32.2389 96.5,31.5 Z"/></g>
<g><path style="opacity:1" fill="#0c1225" d="M 98.5,32.5 C 98.8966,31.475 99.5632,31.3083 100.5,32C 99.9056,32.4643 99.2389,32.631 98.5,32.5 Z"/></g>
<g><path style="opacity:1" fill="#0c1225" d="M 104.5,31.5 C 103.833,32.1667 103.833,32.1667 104.5,31.5 Z"/></g>
<g><path style="opacity:1" fill="#0c1225" d="M 222.5,31.5 C 223.833,32.1667 223.833,32.1667 222.5,31.5 Z"/></g>
<g><path style="opacity:1" fill="#0c1225" d="M 226.5,32.5 C 226.897,31.475 227.563,31.3083 228.5,32C 227.906,32.4643 227.239,32.631 226.5,32.5 Z"/></g>
<g><path style="opacity:1" fill="#0c1225" d="M 229.5,31.5 C 230.525,31.8966 230.692,32.5632 230,33.5C 229.536,32.9056 229.369,32.2389 229.5,31.5 Z"/></g>
<g><path style="opacity:1" fill="#0c1225" d="M 101.5,32.5 C 102.525,32.8966 102.692,33.5632 102,34.5C 101.536,33.9056 101.369,33.2389 101.5,32.5 Z"/></g>
<g><path style="opacity:1" fill="#0c1225" d="M 224.5,32.5 C 225.525,32.8966 225.692,33.5632 225,34.5C 224.536,33.9056 224.369,33.2389 224.5,32.5 Z"/></g>
<g><path style="opacity:1" fill="#0c1225" d="M 98.5,34.5 C 99.8333,35.1667 99.8333,35.1667 98.5,34.5 Z"/></g>
<g><path style="opacity:1" fill="#0c1225" d="M 227.5,34.5 C 228.833,35.1667 228.833,35.1667 227.5,34.5 Z"/></g>
<g><path style="opacity:1" fill="#0c1225" d="M 95.5,35.5 C 96.8333,36.1667 96.8333,36.1667 95.5,35.5 Z"/></g>
<g><path style="opacity:1" fill="#0c1225" d="M 230.5,35.5 C 231.833,36.1667 231.833,36.1667 230.5,35.5 Z"/></g>
<g><path style="opacity:1" fill="#0c1225" d="M 100.5,36.5 C 101.833,37.1667 101.833,37.1667 100.5,36.5 Z"/></g>
<g><path style="opacity:1" fill="#0c1225" d="M 226.5,37.5 C 225.833,36.1667 225.833,36.1667 226.5,37.5 Z"/></g>
<g><path style="opacity:1" fill="#0c1225" d="M 100.5,37.5 C 100.5,38.5 100.5,39.5 100.5,40.5C 99.1667,39.5 99.1667,38.5 100.5,37.5 Z"/></g>
<g><path style="opacity:1" fill="#0c1225" d="M 226.5,37.5 C 227.338,37.8417 227.672,38.5084 227.5,39.5C 226.662,39.1583 226.328,38.4916 226.5,37.5 Z"/></g>
<g><path style="opacity:1" fill="#0c1225" d="M 228.5,37.5 C 229.833,38.1667 229.833,38.1667 228.5,37.5 Z"/></g>
<g><path style="opacity:1" fill="#0c1225" d="M 96.5,39.5 C 97.8333,40.1667 97.8333,40.1667 96.5,39.5 Z"/></g>
<g><path style="opacity:1" fill="#0c1225" d="M 227.5,39.5 C 228.833,40.1667 228.833,40.8333 227.5,41.5C 227.5,40.8333 227.5,40.1667 227.5,39.5 Z"/></g>
<g><path style="opacity:1" fill="#0c1225" d="M 230.5,40.5 C 231.833,41.1667 231.833,41.1667 230.5,40.5 Z"/></g>
<g><path style="opacity:1" fill="#0c1225" d="M 98.5,43.5 C 97.7611,43.631 97.0944,43.4643 96.5,43C 97.4368,42.3083 98.1034,42.475 98.5,43.5 Z"/></g>
<g><path style="opacity:1" fill="#0c1225" d="M 233.5,47.5 C 234.833,48.1667 234.833,48.1667 233.5,47.5 Z"/></g>
<g><path style="opacity:1" fill="#0c1225" d="M 236.5,47.5 C 237.833,48.1667 237.833,48.1667 236.5,47.5 Z"/></g>
<g><path style="opacity:1" fill="#0c1225" d="M 92.5,50.5 C 90.663,50.3605 90.3296,49.6939 91.5,48.5C 92.2975,48.9569 92.6309,49.6236 92.5,50.5 Z"/></g>
<g><path style="opacity:1" fill="#0c1225" d="M 235.5,49.5 C 236.833,50.1667 236.833,50.1667 235.5,49.5 Z"/></g>
<g><path style="opacity:1" fill="#0c1225" d="M 233.5,50.5 C 234.833,51.1667 234.833,51.1667 233.5,50.5 Z"/></g>
<g><path style="opacity:1" fill="#0c1225" d="M 87.5,51.5 C 88.525,51.8966 88.6917,52.5632 88,53.5C 87.5357,52.9056 87.369,52.2389 87.5,51.5 Z"/></g>
<g><path style="opacity:1" fill="#0c1225" d="M 89.5,51.5 C 90.525,51.8966 90.6917,52.5632 90,53.5C 89.5357,52.9056 89.369,52.2389 89.5,51.5 Z"/></g>
<g><path style="opacity:1" fill="#0c1225" d="M 236.5,51.5 C 237.525,51.8966 237.692,52.5632 237,53.5C 236.536,52.9056 236.369,52.2389 236.5,51.5 Z"/></g>
<g><path style="opacity:1" fill="#0c1225" d="M 88.5,54.5 C 89.8333,55.1667 89.8333,55.1667 88.5,54.5 Z"/></g>
<g><path style="opacity:1" fill="#0c1225" d="M 237.5,54.5 C 238.833,55.1667 238.833,55.1667 237.5,54.5 Z"/></g>
<g><path style="opacity:1" fill="#0c1225" d="M 87.5,58.5 C 88.8333,59.1667 88.8333,59.1667 87.5,58.5 Z"/></g>
<g><path style="opacity:1" fill="#0c1225" d="M 238.5,60.5 C 238.369,59.7611 238.536,59.0944 239,58.5C 239.692,59.4368 239.525,60.1034 238.5,60.5 Z"/></g>
<g><path style="opacity:1" fill="#0c1225" d="M 81.5,64.5 C 80.8333,63.1667 80.8333,63.1667 81.5,64.5 Z"/></g>
<g><path style="opacity:1" fill="#0c1225" d="M 244.5,63.5 C 245.833,64.1667 245.833,64.1667 244.5,63.5 Z"/></g>
<g><path style="opacity:1" fill="#0c1225" d="M 81.5,64.5 C 82.5735,65.2506 82.7401,66.2506 82,67.5C 81.5172,66.552 81.3505,65.552 81.5,64.5 Z"/></g>
<g><path style="opacity:1" fill="#0c1225" d="M 84.5,67.5 C 83.475,67.1034 83.3083,66.4368 84,65.5C 84.4643,66.0944 84.631,66.7611 84.5,67.5 Z"/></g>
<g><path style="opacity:1" fill="#0c1225" d="M 246.5,68.5 C 247.525,68.8966 247.692,69.5632 247,70.5C 246.536,69.9056 246.369,69.2389 246.5,68.5 Z"/></g>
<g><path style="opacity:1" fill="#0c1225" d="M 71.5,71.5 C 72.8333,72.1667 72.8333,72.1667 71.5,71.5 Z"/></g>
<g><path style="opacity:1" fill="#0c1225" d="M 246.5,71.5 C 247.833,72.1667 247.833,72.1667 246.5,71.5 Z"/></g>
<g><path style="opacity:1" fill="#0c1225" d="M 253.5,71.5 C 254.833,72.1667 254.833,72.1667 253.5,71.5 Z"/></g>
<g><path style="opacity:1" fill="#0c1225" d="M 250.5,72.5 C 251.525,72.8966 251.692,73.5632 251,74.5C 250.536,73.9056 250.369,73.2389 250.5,72.5 Z"/></g>
<g><path style="opacity:1" fill="#0c1225" d="M 247.5,76.5 C 247.872,74.3441 248.872,74.3441 250.5,76.5C 249.767,77.087 248.767,77.087 247.5,76.5 Z"/></g>
<g><path style="opacity:1" fill="#0c1225" d="M 254.5,77.5 C 252.24,76.7624 252.073,75.7624 254,74.5C 254.483,75.448 254.649,76.448 254.5,77.5 Z"/></g>
<g><path style="opacity:1" fill="#0c1225" d="M 254.5,77.5 C 255.833,78.1667 255.833,78.1667 254.5,77.5 Z"/></g>
<g><path style="opacity:1" fill="#0c1225" d="M 72.5,80.5 C 71.8333,79.1667 71.8333,79.1667 72.5,80.5 Z"/></g>
<g><path style="opacity:1" fill="#0c1225" d="M 251.5,83.5 C 251.522,81.1996 252.522,80.033 254.5,80C 253.837,81.5185 252.837,82.6851 251.5,83.5 Z"/></g>
<g><path style="opacity:1" fill="#0c1225" d="M 254.5,83.5 C 255.833,84.1667 255.833,84.1667 254.5,83.5 Z"/></g>
<g><path style="opacity:1" fill="#0c1225" d="M 72.5,86.5 C 71.8333,87.1667 71.8333,87.1667 72.5,86.5 Z"/></g>
<g><path style="opacity:1" fill="#0c1225" d="M 64.5,87.5 C 65.8333,88.1667 65.8333,88.1667 64.5,87.5 Z"/></g>
<g><path style="opacity:1" fill="#0c1225" d="M 67.5,88.5 C 68.8333,89.1667 68.8333,89.1667 67.5,88.5 Z"/></g>
<g><path style="opacity:1" fill="#0c1225" d="M 70.5,88.5 C 71.8333,89.1667 71.8333,89.1667 70.5,88.5 Z"/></g>
<g><path style="opacity:1" fill="#0c1225" d="M 261.5,89.5 C 262.833,90.1667 262.833,90.1667 261.5,89.5 Z"/></g>
<g><path style="opacity:1" fill="#0c1225" d="M 66.5,92.5 C 65.475,92.1034 65.3083,91.4368 66,90.5C 66.4643,91.0944 66.631,91.7611 66.5,92.5 Z"/></g>
<g><path style="opacity:1" fill="#0c1225" d="M 68.5,90.5 C 69.8333,91.1667 69.8333,91.1667 68.5,90.5 Z"/></g>
<g><path style="opacity:1" fill="#0c1225" d="M 257.5,91.5 C 258.077,90.2267 258.743,90.2267 259.5,91.5C 259.03,92.463 258.363,92.463 257.5,91.5 Z"/></g>
<g><path style="opacity:1" fill="#0c1225" d="M 63.5,92.5 C 64.525,92.8966 64.6917,93.5632 64,94.5C 63.5357,93.9056 63.369,93.2389 63.5,92.5 Z"/></g>
<g><path style="opacity:1" fill="#0c1225" d="M 66.5,92.5 C 67.1667,92.5 67.5,92.8333 67.5,93.5C 67.1667,93.1667 66.8333,92.8333 66.5,92.5 Z"/></g>
<g><path style="opacity:1" fill="#0c1225" d="M 67.5,93.5 C 68.1667,93.5 68.5,93.8333 68.5,94.5C 68.1667,94.1667 67.8333,93.8333 67.5,93.5 Z"/></g>
<g><path style="opacity:1" fill="#0c1225" d="M 260.5,93.5 C 261.525,93.8966 261.692,94.5632 261,95.5C 260.536,94.9056 260.369,94.2389 260.5,93.5 Z"/></g>
<g><path style="opacity:1" fill="#0c1225" d="M 262.5,93.5 C 263.525,93.8966 263.692,94.5632 263,95.5C 262.536,94.9056 262.369,94.2389 262.5,93.5 Z"/></g>
<g><path style="opacity:1" fill="#0c1225" d="M 65.5,94.5 C 66.8333,95.1667 66.8333,95.1667 65.5,94.5 Z"/></g>
<g><path style="opacity:1" fill="#0c1225" d="M 65.5,95.5 C 64.8333,96.1667 64.8333,96.1667 65.5,95.5 Z"/></g>
<g><path style="opacity:1" fill="#0c1225" d="M 181.5,96.5 C 181.489,99.0009 180.822,99.1676 179.5,97C 180.094,96.5357 180.761,96.369 181.5,96.5 Z"/></g>
<g><path style="opacity:1" fill="#0c1225" d="M 177.5,97.5 C 178.627,98.1217 179.627,98.955 180.5,100C 178.511,100.519 177.511,99.6859 177.5,97.5 Z"/></g>
<g><path style="opacity:1" fill="#0c1225" d="M 65.5,99.5 C 64.8333,100.167 64.8333,100.167 65.5,99.5 Z"/></g>
<g><path style="opacity:1" fill="#0c1225" d="M 262.5,99.5 C 263.833,100.167 263.833,100.167 262.5,99.5 Z"/></g>
<g><path style="opacity:1" fill="#0c1225" d="M 181.5,100.5 C 182.289,100.783 182.956,101.283 183.5,102C 182.184,102.528 181.517,102.028 181.5,100.5 Z"/></g>
<g><path style="opacity:1" fill="#0c1225" d="M 57.5,104.5 C 56.8333,103.167 56.8333,103.167 57.5,104.5 Z"/></g>
<g><path style="opacity:1" fill="#0c1225" d="M 62.5,106.5 C 60.9153,105.998 60.4153,104.998 61,103.5C 62.0386,104.244 62.5386,105.244 62.5,106.5 Z"/></g>
<g><path style="opacity:1" fill="#0c1225" d="M 265.5,103.5 C 266.833,104.167 266.833,104.167 265.5,103.5 Z"/></g>
<g><path style="opacity:1" fill="#0c1225" d="M 268.5,104.5 C 267.833,103.167 267.833,103.167 268.5,104.5 Z"/></g>
<g><path style="opacity:1" fill="#0c1225" d="M 57.5,104.5 C 58.8333,105.167 58.8333,105.167 57.5,104.5 Z"/></g>
<g><path style="opacity:1" fill="#0c1225" d="M 268.5,104.5 C 269.525,104.897 269.692,105.563 269,106.5C 268.536,105.906 268.369,105.239 268.5,104.5 Z"/></g>
<g><path style="opacity:1" fill="#0c1225" d="M 184.5,105.5 C 187.001,105.511 187.168,106.178 185,107.5C 184.536,106.906 184.369,106.239 184.5,105.5 Z"/></g>
<g><path style="opacity:1" fill="#0c1225" d="M 264.5,105.5 C 265.833,106.167 265.833,106.167 264.5,105.5 Z"/></g>
<g><path style="opacity:1" fill="#0c1225" d="M 266.5,105.5 C 267.833,106.167 267.833,106.167 266.5,105.5 Z"/></g>
<g><path style="opacity:1" fill="#0c1225" d="M 56.5,108.5 C 55.475,108.103 55.3083,107.437 56,106.5C 56.4643,107.094 56.631,107.761 56.5,108.5 Z"/></g>
<g><path style="opacity:1" fill="#0c1225" d="M 57.5,108.5 C 57.7828,107.711 58.2828,107.044 59,106.5C 59.5281,107.816 59.0281,108.483 57.5,108.5 Z"/></g>
<g><path style="opacity:1" fill="#0c1225" d="M 269.5,108.5 C 268.833,107.167 268.833,107.167 269.5,108.5 Z"/></g>
<g><path style="opacity:1" fill="#0c1225" d="M 270.5,107.5 C 271.833,108.167 271.833,108.167 270.5,107.5 Z"/></g>
<g><path style="opacity:1" fill="#0c1225" d="M 56.5,108.5 C 56.8333,108.5 57.1667,108.5 57.5,108.5C 57.5,109.167 57.5,109.833 57.5,110.5C 56.6618,110.158 56.3284,109.492 56.5,108.5 Z"/></g>
<g><path style="opacity:1" fill="#0c1225" d="M 270.5,113.5 C 271.833,114.167 271.833,114.167 270.5,113.5 Z"/></g>
<g><path style="opacity:1" fill="#0c1225" d="M 270.5,114.5 C 269.833,115.167 269.833,115.167 270.5,114.5 Z"/></g>
<g><path style="opacity:1" fill="#0c1225" d="M 47.5,119.5 C 48.8333,120.167 48.8333,120.167 47.5,119.5 Z"/></g>
<g><path style="opacity:1" fill="#0c1225" d="M 49.5,119.5 C 50.525,119.897 50.6917,120.563 50,121.5C 49.5357,120.906 49.369,120.239 49.5,119.5 Z"/></g>
<g><path style="opacity:1" fill="#0c1225" d="M 274.5,120.5 C 273.833,119.167 273.833,119.167 274.5,120.5 Z"/></g>
<g><path style="opacity:1" fill="#0c1225" d="M 277.5,120.5 C 276.833,119.167 276.833,119.167 277.5,120.5 Z"/></g>
<g><path style="opacity:1" fill="#0c1225" d="M 278.5,119.5 C 279.833,120.167 279.833,120.167 278.5,119.5 Z"/></g>
<g><path style="opacity:1" fill="#0c1225" d="M 52.5,121.5 C 51.8333,120.167 51.8333,120.167 52.5,121.5 Z"/></g>
<g><path style="opacity:1" fill="#0c1225" d="M 274.5,120.5 C 275.833,121.167 275.833,121.167 274.5,120.5 Z"/></g>
<g><path style="opacity:1" fill="#0c1225" d="M 277.5,120.5 C 277.833,120.5 278.167,120.5 278.5,120.5C 278.5,121.167 278.5,121.833 278.5,122.5C 277.662,122.158 277.328,121.492 277.5,120.5 Z"/></g>
<g><path style="opacity:1" fill="#0c1225" d="M 278.5,122.5 C 279.833,123.167 279.833,123.167 278.5,122.5 Z"/></g>
<g><path style="opacity:1" fill="#0c1225" d="M 49.5,124.5 C 48.8333,123.167 48.8333,123.167 49.5,124.5 Z"/></g>
<g><path style="opacity:1" fill="#0c1225" d="M 49.5,124.5 C 50.525,124.897 50.6917,125.563 50,126.5C 49.5357,125.906 49.369,125.239 49.5,124.5 Z"/></g>
<g><path style="opacity:1" fill="#0c1225" d="M 277.5,124.5 C 278.833,125.167 278.833,125.167 277.5,124.5 Z"/></g>
<g><path style="opacity:1" fill="#0c1225" d="M 40.5,135.5 C 41.8333,136.167 41.8333,136.167 40.5,135.5 Z"/></g>
<g><path style="opacity:1" fill="#0c1225" d="M 282.5,135.5 C 283.833,136.167 283.833,136.167 282.5,135.5 Z"/></g>
<g><path style="opacity:1" fill="#0c1225" d="M 40.5,136.5 C 40.631,137.239 40.4643,137.906 40,138.5C 39.3083,137.563 39.475,136.897 40.5,136.5 Z"/></g>
<g><path style="opacity:1" fill="#0c1225" d="M 44.5,138.5 C 43.475,138.103 43.3083,137.437 44,136.5C 44.4643,137.094 44.631,137.761 44.5,138.5 Z"/></g>
<g><path style="opacity:1" fill="#0c1225" d="M 285.5,136.5 C 286.833,137.167 286.833,137.167 285.5,136.5 Z"/></g>
<g><path style="opacity:1" fill="#0c1225" d="M 203.5,138.5 C 204.189,137.226 205.023,137.226 206,138.5C 206.667,139.5 206.667,140.5 206,141.5C 205.623,140.058 204.79,139.058 203.5,138.5 Z"/></g>
<g><path style="opacity:1" fill="#0c1225" d="M 285.5,137.5 C 284.833,138.167 284.833,138.167 285.5,137.5 Z"/></g>
<g><path style="opacity:1" fill="#0c1225" d="M 286.5,138.5 C 287.525,138.897 287.692,139.563 287,140.5C 286.536,139.906 286.369,139.239 286.5,138.5 Z"/></g>
<g><path style="opacity:1" fill="#0c1225" d="M 41.5,139.5 C 42.8333,140.167 42.8333,140.167 41.5,139.5 Z"/></g>
<g><path style="opacity:1" fill="#0c1225" d="M 41.5,143.5 C 40.475,143.103 40.3083,142.437 41,141.5C 41.4643,142.094 41.631,142.761 41.5,143.5 Z"/></g>
<g><path style="opacity:1" fill="#0c1225" d="M 285.5,142.5 C 286.833,143.167 286.833,143.167 285.5,142.5 Z"/></g>
<g><path style="opacity:1" fill="#0c1225" d="M 33.5,143.5 C 34.8333,144.167 34.8333,144.167 33.5,143.5 Z"/></g>
<g><path style="opacity:1" fill="#0c1225" d="M 290.5,143.5 C 291.833,144.167 291.833,144.167 290.5,143.5 Z"/></g>
<g><path style="opacity:1" fill="#0c1225" d="M 37.5,145.5 C 38.525,145.897 38.6917,146.563 38,147.5C 37.5357,146.906 37.369,146.239 37.5,145.5 Z"/></g>
<g><path style="opacity:1" fill="#0c1225" d="M 32.5,146.5 C 33.525,146.897 33.6917,147.563 33,148.5C 32.5357,147.906 32.369,147.239 32.5,146.5 Z"/></g>
<g><path style="opacity:1" fill="#0c1225" d="M 289.5,146.5 C 290.525,146.897 290.692,147.563 290,148.5C 289.536,147.906 289.369,147.239 289.5,146.5 Z"/></g>
<g><path style="opacity:1" fill="#0c1225" d="M 292.5,147.5 C 293.525,147.897 293.692,148.563 293,149.5C 292.536,148.906 292.369,148.239 292.5,147.5 Z"/></g>
<g><path style="opacity:1" fill="#0c1225" d="M 35.5,148.5 C 36.5735,149.251 36.7401,150.251 36,151.5C 35.5172,150.552 35.3505,149.552 35.5,148.5 Z"/></g>
<g><path style="opacity:1" fill="#0c1225" d="M 33.5,149.5 C 34.525,149.897 34.6917,150.563 34,151.5C 33.5357,150.906 33.369,150.239 33.5,149.5 Z"/></g>
<g><path style="opacity:1" fill="#0c1225" d="M 31.5,150.5 C 32.8333,151.167 32.8333,151.167 31.5,150.5 Z"/></g>
<g><path style="opacity:1" fill="#0c1225" d="M 294.5,150.5 C 295.833,151.167 295.833,151.167 294.5,150.5 Z"/></g>
<g><path style="opacity:1" fill="#0c1225" d="M 291.5,153.5 C 291.369,152.761 291.536,152.094 292,151.5C 292.692,152.437 292.525,153.103 291.5,153.5 Z"/></g>
<g><path style="opacity:1" fill="#0c1225" d="M 34.5,155.5 C 32.3544,155.304 32.1878,154.304 34,152.5C 34.4828,153.448 34.6495,154.448 34.5,155.5 Z"/></g>
<g><path style="opacity:1" fill="#0c1225" d="M 293.5,153.5 C 294.525,153.897 294.692,154.563 294,155.5C 293.536,154.906 293.369,154.239 293.5,153.5 Z"/></g>
<g><path style="opacity:1" fill="#0c1225" d="M 32.5,159.5 C 31.8333,158.167 31.8333,158.167 32.5,159.5 Z"/></g>
<g><path style="opacity:1" fill="#0c1225" d="M 25.5,159.5 C 26.8333,160.167 26.8333,160.167 25.5,159.5 Z"/></g>
<g><path style="opacity:1" fill="#0c1225" d="M 29.5,160.5 C 28.8333,159.167 28.8333,159.167 29.5,160.5 Z"/></g>
<g><path style="opacity:1" fill="#0c1225" d="M 297.5,159.5 C 298.833,160.167 298.833,160.167 297.5,159.5 Z"/></g>
<g><path style="opacity:1" fill="#0c1225" d="M 299.5,159.5 C 300.525,159.897 300.692,160.563 300,161.5C 299.536,160.906 299.369,160.239 299.5,159.5 Z"/></g>
<g><path style="opacity:1" fill="#0c1225" d="M 29.5,160.5 C 30.3382,160.842 30.6716,161.508 30.5,162.5C 30.1667,162.5 29.8333,162.5 29.5,162.5C 29.5,161.833 29.5,161.167 29.5,160.5 Z"/></g>
<g><path style="opacity:1" fill="#0c1225" d="M 217.5,160.5 C 218.713,161.497 218.546,162.497 217,163.5C 216.53,162.423 216.697,161.423 217.5,160.5 Z"/></g>
<g><path style="opacity:1" fill="#0c1225" d="M 24.5,162.5 C 25.8333,163.167 25.8333,163.167 24.5,162.5 Z"/></g>
<g><path style="opacity:1" fill="#0c1225" d="M 29.5,162.5 C 28.8333,163.167 28.8333,163.167 29.5,162.5 Z"/></g>
<g><path style="opacity:1" fill="#0c1225" d="M 297.5,162.5 C 298.833,163.167 298.833,163.167 297.5,162.5 Z"/></g>
<g><path style="opacity:1" fill="#0c1225" d="M 301.5,162.5 C 302.525,162.897 302.692,163.563 302,164.5C 301.536,163.906 301.369,163.239 301.5,162.5 Z"/></g>
<g><path style="opacity:1" fill="#0c1225" d="M 27.5,166.5 C 26.4265,165.749 26.2599,164.749 27,163.5C 27.4828,164.448 27.6495,165.448 27.5,166.5 Z"/></g>
<g><path style="opacity:1" fill="#0c1225" d="M 24.5,167.5 C 25.8333,168.167 25.8333,168.167 24.5,167.5 Z"/></g>
<g><path style="opacity:1" fill="#0c1225" d="M 300.5,167.5 C 301.833,168.167 301.833,168.167 300.5,167.5 Z"/></g>
<g><path style="opacity:1" fill="#0c1225" d="M 301.5,169.5 C 302.833,170.167 302.833,170.167 301.5,169.5 Z"/></g>
<g><path style="opacity:1" fill="#0c1225" d="M 17.5,176.5 C 16.8333,175.167 16.8333,175.167 17.5,176.5 Z"/></g>
<g><path style="opacity:1" fill="#0c1225" d="M 18.5,175.5 C 19.8333,176.167 19.8333,176.167 18.5,175.5 Z"/></g>
<g><path style="opacity:1" fill="#0c1225" d="M 305.5,175.5 C 306.833,176.167 306.833,176.167 305.5,175.5 Z"/></g>
<g><path style="opacity:1" fill="#0c1225" d="M 309.5,175.5 C 310.833,176.167 310.833,176.167 309.5,175.5 Z"/></g>
<g><path style="opacity:1" fill="#0c1225" d="M 17.5,176.5 C 17.8333,176.5 18.1667,176.5 18.5,176.5C 19.1098,177.391 19.4431,178.391 19.5,179.5C 18.0937,179.027 17.427,178.027 17.5,176.5 Z"/></g>
<g><path style="opacity:1" fill="#0c1225" d="M 309.5,176.5 C 308.833,177.167 308.833,177.167 309.5,176.5 Z"/></g>
<g><path style="opacity:1" fill="#0c1225" d="M 308.5,177.5 C 308.573,179.027 307.906,180.027 306.5,180.5C 306.427,178.973 307.094,177.973 308.5,177.5 Z"/></g>
<g><path style="opacity:1" fill="#0c1225" d="M 309.5,178.5 C 310.525,178.897 310.692,179.563 310,180.5C 309.536,179.906 309.369,179.239 309.5,178.5 Z"/></g>
<g><path style="opacity:1" fill="#0c1225" d="M 310.5,182.5 C 311.833,183.167 311.833,183.167 310.5,182.5 Z"/></g>
<g><path style="opacity:1" fill="#0c1225" d="M 309.5,184.5 C 310.833,185.167 310.833,185.167 309.5,184.5 Z"/></g>
<g><path style="opacity:1" fill="#0c1225" d="M 310.5,186.5 C 311.833,187.167 311.833,187.167 310.5,186.5 Z"/></g>
<g><path style="opacity:1" fill="#0c1225" d="M 232.5,188.5 C 233.289,188.783 233.956,189.283 234.5,190C 233.184,190.528 232.517,190.028 232.5,188.5 Z"/></g>
<g><path style="opacity:1" fill="#0c1225" d="M 9.5,192.5 C 8.83333,191.167 8.83333,191.167 9.5,192.5 Z"/></g>
<g><path style="opacity:1" fill="#0c1225" d="M 13.5,192.5 C 12.8333,191.167 12.8333,191.167 13.5,192.5 Z"/></g>
<g><path style="opacity:1" fill="#0c1225" d="M 313.5,191.5 C 314.833,192.167 314.833,192.167 313.5,191.5 Z"/></g>
<g><path style="opacity:1" fill="#0c1225" d="M 317.5,191.5 C 318.833,192.167 318.833,192.167 317.5,191.5 Z"/></g>
<g><path style="opacity:1" fill="#0c1225" d="M 9.5,192.5 C 10.8333,192.5 11.5,193.167 11.5,194.5C 11.5,193.167 10.8333,192.5 9.5,192.5 Z"/></g>
<g><path style="opacity:1" fill="#0c1225" d="M 238.5,194.5 C 237.947,196.657 236.947,196.49 235.5,194C 236.577,193.53 237.577,193.697 238.5,194.5 Z"/></g>
<g><path style="opacity:1" fill="#0c1225" d="M 7.5,195.5 C 8.83333,196.167 8.83333,196.167 7.5,195.5 Z"/></g>
<g><path style="opacity:1" fill="#0c1225" d="M 9.5,196.5 C 10.8333,197.167 10.8333,197.167 9.5,196.5 Z"/></g>
<g><path style="opacity:1" fill="#0c1225" d="M 318.5,196.5 C 319.833,197.167 319.833,197.167 318.5,196.5 Z"/></g>
<g><path style="opacity:1" fill="#0c1225" d="M 318.5,200.5 C 318.167,200.5 317.833,200.5 317.5,200.5C 317.833,197.833 318.167,197.833 318.5,200.5 Z"/></g>
<g><path style="opacity:1" fill="#0c1225" d="M 318.5,200.5 C 319.833,201.167 319.833,201.167 318.5,200.5 Z"/></g>
<g><path style="opacity:1" fill="#0c1225" d="M 3.5,207.5 C 4.83333,208.167 4.83333,208.167 3.5,207.5 Z"/></g>
<g><path style="opacity:1" fill="#0c1225" d="M 323.5,207.5 C 324.833,208.167 324.833,208.167 323.5,207.5 Z"/></g>
<g><path style="opacity:1" fill="#0c1225" d="M 0.5,208.5 C 1.57346,209.251 1.74012,210.251 1,211.5C 0.517215,210.552 0.350549,209.552 0.5,208.5 Z"/></g>
<g><path style="opacity:1" fill="#0c1225" d="M 321.5,209.5 C 322.833,210.167 322.833,210.167 321.5,209.5 Z"/></g>
<g><path style="opacity:1" fill="#0c1225" d="M 3.5,210.5 C 4.83333,211.167 4.83333,211.167 3.5,210.5 Z"/></g>
<g><path style="opacity:1" fill="#0c1225" d="M 3.5,211.5 C 3.63101,212.239 3.46434,212.906 3,213.5C 2.30831,212.563 2.47498,211.897 3.5,211.5 Z"/></g>
<g><path style="opacity:1" fill="#0c1225" d="M 327.5,212.5 C 327.5,213.167 327.5,213.833 327.5,214.5C 326.167,213.833 326.167,213.167 327.5,212.5 Z"/></g>
<g><path style="opacity:1" fill="#0c1225" d="M 323.5,214.5 C 324.833,215.167 324.833,215.167 323.5,214.5 Z"/></g>
<g><path style="opacity:1" fill="#0c1225" d="M 325.5,216.5 C 326.573,217.251 326.74,218.251 326,219.5C 325.517,218.552 325.351,217.552 325.5,216.5 Z"/></g>
<g><path style="opacity:1" fill="#0c1225" d="M 0.5,217.5 C 1.52502,217.897 1.69169,218.563 1,219.5C 0.535656,218.906 0.368989,218.239 0.5,217.5 Z"/></g>
<g><path style="opacity:1" fill="#0c1225" d="M -0.5,220.5 C 0.833333,221.167 0.833333,221.167 -0.5,220.5 Z"/></g>
<g><path style="opacity:1" fill="#0c1225" d="M -0.5,263.5 C 0.833333,264.167 0.833333,264.167 -0.5,263.5 Z"/></g>
<g><path style="opacity:1" fill="#0c1225" d="M 326.5,263.5 C 326.833,263.5 327.167,263.5 327.5,263.5C 327.5,263.833 327.5,264.167 327.5,264.5C 327.167,264.167 326.833,263.833 326.5,263.5 Z"/></g>
<g><path style="opacity:1" fill="#0c1225" d="M 327.5,266.5 C 327.5,267.167 327.5,267.833 327.5,268.5C 327.167,268.5 326.833,268.5 326.5,268.5C 326.328,267.508 326.662,266.842 327.5,266.5 Z"/></g>
<g><path style="opacity:1" fill="#0c1225" d="M 1.5,268.5 C 2.52502,268.897 2.69169,269.563 2,270.5C 1.53566,269.906 1.36899,269.239 1.5,268.5 Z"/></g>
<g><path style="opacity:1" fill="#0c1225" d="M 326.5,268.5 C 326.5,269.167 326.5,269.833 326.5,270.5C 325.167,269.833 325.167,269.167 326.5,268.5 Z"/></g>
<g><path style="opacity:1" fill="#0c1225" d="M -0.5,270.5 C 0.833333,271.167 0.833333,271.167 -0.5,270.5 Z"/></g>
<g><path style="opacity:1" fill="#0c1225" d="M 326.5,270.5 C 326.833,270.5 327.167,270.5 327.5,270.5C 327.5,270.833 327.5,271.167 327.5,271.5C 327.167,271.167 326.833,270.833 326.5,270.5 Z"/></g>
<g><path style="opacity:1" fill="#0c1225" d="M 1.5,271.5 C 2.83333,272.167 2.83333,272.167 1.5,271.5 Z"/></g>
<g><path style="opacity:1" fill="#0c1225" d="M 327.5,272.5 C 327.5,273.167 327.5,273.833 327.5,274.5C 326.167,273.833 326.167,273.167 327.5,272.5 Z"/></g>
<g><path style="opacity:1" fill="#0c1225" d="M 2.5,273.5 C 3.52502,273.897 3.69169,274.563 3,275.5C 2.53566,274.906 2.36899,274.239 2.5,273.5 Z"/></g>
<g><path style="opacity:1" fill="#0c1225" d="M 323.5,273.5 C 324.833,274.167 324.833,274.167 323.5,273.5 Z"/></g>
<g><path style="opacity:1" fill="#0c1225" d="M 321.5,275.5 C 322.833,276.167 322.833,276.167 321.5,275.5 Z"/></g>
<g><path style="opacity:1" fill="#0c1225" d="M 0.5,276.5 C 1.52502,276.897 1.69169,277.563 1,278.5C 0.535656,277.906 0.368989,277.239 0.5,276.5 Z"/></g>
<g><path style="opacity:1" fill="#0c1225" d="M 4.5,276.5 C 4.63101,277.239 4.46434,277.906 4,278.5C 3.30831,277.563 3.47498,276.897 4.5,276.5 Z"/></g>
<g><path style="opacity:1" fill="#0c1225" d="M 320.5,276.5 C 320.833,276.5 321.167,276.5 321.5,276.5C 321.315,277.17 320.981,277.17 320.5,276.5 Z"/></g>
<g><path style="opacity:1" fill="#0c1225" d="M 7.5,277.5 C 6.83333,278.167 6.83333,278.167 7.5,277.5 Z"/></g>
<g><path style="opacity:1" fill="#0c1225" d="M 321.5,278.5 C 322.833,279.167 322.833,279.167 321.5,278.5 Z"/></g>
<g><path style="opacity:1" fill="#0c1225" d="M 8.5,279.5 C 7.83333,280.167 7.83333,280.167 8.5,279.5 Z"/></g>
<g><path style="opacity:1" fill="#0c1225" d="M 318.5,280.5 C 319.833,281.167 319.833,281.167 318.5,280.5 Z"/></g>
<g><path style="opacity:1" fill="#0c1225" d="M 316.5,282.5 C 317.833,283.167 317.833,283.167 316.5,282.5 Z"/></g>
<g><path style="opacity:1" fill="#0c1225" d="M 318.5,283.5 C 319.525,283.897 319.692,284.563 319,285.5C 318.536,284.906 318.369,284.239 318.5,283.5 Z"/></g>
<g><path style="opacity:1" fill="#0c1225" d="M 314.5,284.5 C 315.167,284.5 315.5,284.833 315.5,285.5C 315.167,285.167 314.833,284.833 314.5,284.5 Z"/></g>
<g><path style="opacity:1" fill="#0c1225" d="M 315.5,285.5 C 316.833,286.167 316.833,286.167 315.5,285.5 Z"/></g>
<g><path style="opacity:1" fill="#0c1225" d="M 8.5,286.5 C 7.83333,287.167 7.83333,287.167 8.5,286.5 Z"/></g>
<g><path style="opacity:1" fill="#0c1225" d="M 313.5,286.5 C 314.833,287.167 314.833,287.167 313.5,286.5 Z"/></g>
<g><path style="opacity:1" fill="#0c1225" d="M 318.5,286.5 C 319.833,287.167 319.833,287.167 318.5,286.5 Z"/></g>
<g><path style="opacity:1" fill="#0c1225" d="M 16.5,291.5 C 15.8333,290.167 15.8333,290.167 16.5,291.5 Z"/></g>
<g><path style="opacity:1" fill="#0c1225" d="M 16.5,291.5 C 17.8333,292.167 17.8333,292.167 16.5,291.5 Z"/></g>
<g><path style="opacity:1" fill="#0c1225" d="M 309.5,292.5 C 308.833,293.167 308.833,293.167 309.5,292.5 Z"/></g>
<g><path style="opacity:1" fill="#0c1225" d="M 16.5,294.5 C 15.8333,293.167 15.8333,293.167 16.5,294.5 Z"/></g>
<g><path style="opacity:1" fill="#0c1225" d="M 308.5,293.5 C 307.833,294.167 307.833,294.167 308.5,293.5 Z"/></g>
<g><path style="opacity:1" fill="#0c1225" d="M 310.5,293.5 C 311.833,294.167 311.833,294.167 310.5,293.5 Z"/></g>
<g><path style="opacity:1" fill="#0c1225" d="M 16.5,294.5 C 17.8333,295.167 17.8333,295.167 16.5,294.5 Z"/></g>
<g><path style="opacity:1" fill="#0c1225" d="M 307.5,294.5 C 306.833,295.167 306.833,295.167 307.5,294.5 Z"/></g>
<g><path style="opacity:1" fill="#0c1225" d="M 310.5,294.5 C 309.833,295.167 309.833,295.167 310.5,294.5 Z"/></g>
<g><path style="opacity:1" fill="#0c1225" d="M 24.5,298.5 C 23.8333,299.167 23.8333,299.167 24.5,298.5 Z"/></g>
<g><path style="opacity:1" fill="#0c1225" d="M 27.5,298.5 C 26.8333,299.167 26.8333,299.167 27.5,298.5 Z"/></g>
<g><path style="opacity:1" fill="#0c1225" d="M 302.5,298.5 C 303.833,299.167 303.833,299.167 302.5,298.5 Z"/></g>
<g><path style="opacity:1" fill="#0c1225" d="M 25.5,301.5 C 24.7611,301.631 24.0944,301.464 23.5,301C 24.4368,300.308 25.1034,300.475 25.5,301.5 Z"/></g>
<g><path style="opacity:1" fill="#0c1225" d="M 29.5,300.5 C 28.8333,301.167 28.8333,301.167 29.5,300.5 Z"/></g>
<g><path style="opacity:1" fill="#0c1225" d="M 297.5,301.5 C 297.5,301.167 297.5,300.833 297.5,300.5C 300.167,300.833 300.167,301.167 297.5,301.5 Z"/></g>
<g><path style="opacity:1" fill="#0c1225" d="M 25.5,301.5 C 26.8333,302.167 26.8333,302.167 25.5,301.5 Z"/></g>
<g><path style="opacity:1" fill="#0c1225" d="M 31.5,301.5 C 30.8333,302.167 30.8333,302.167 31.5,301.5 Z"/></g>
<g><path style="opacity:1" fill="#0c1225" d="M 297.5,301.5 C 297.489,304.001 296.822,304.168 295.5,302C 296.094,301.536 296.761,301.369 297.5,301.5 Z"/></g>
<g><path style="opacity:1" fill="#0c1225" d="M 300.5,301.5 C 301.833,302.167 301.833,302.167 300.5,301.5 Z"/></g>
<g><path style="opacity:1" fill="#0c1225" d="M 293.5,302.5 C 294.833,303.167 294.833,303.167 293.5,302.5 Z"/></g>
<g><path style="opacity:1" fill="#0c1225" d="M 300.5,302.5 C 299.833,303.167 299.833,303.167 300.5,302.5 Z"/></g>
<g><path style="opacity:1" fill="#0c1225" d="M 35.5,303.5 C 34.8333,304.167 34.8333,304.167 35.5,303.5 Z"/></g>
<g><path style="opacity:1" fill="#0c1225" d="M 40.5,307.5 C 41.8333,308.167 41.8333,308.167 40.5,307.5 Z"/></g>
<g><path style="opacity:1" fill="#0c1225" d="M 283.5,307.5 C 284.833,308.167 284.833,308.167 283.5,307.5 Z"/></g>
<g><path style="opacity:1" fill="#0c1225" d="M 47.5,308.5 C 47.5,308.833 47.5,309.167 47.5,309.5C 46.8299,309.019 46.8299,308.685 47.5,308.5 Z"/></g>
<g><path style="opacity:1" fill="#0c1225" d="M 39.5,309.5 C 40.8333,310.167 40.8333,310.167 39.5,309.5 Z"/></g>
<g><path style="opacity:1" fill="#0c1225" d="M 43.5,309.5 C 44.8333,310.167 44.8333,310.167 43.5,309.5 Z"/></g>
<g><path style="opacity:1" fill="#0c1225" d="M 47.5,309.5 C 48.8333,310.167 48.8333,310.167 47.5,309.5 Z"/></g>
<g><path style="opacity:1" fill="#0c1225" d="M 31.5,310.5 C 32.8333,311.167 32.8333,311.167 31.5,310.5 Z"/></g>
<g><path style="opacity:1" fill="#0c1225" d="M 294.5,310.5 C 295.833,311.167 295.833,311.167 294.5,310.5 Z"/></g>
<g><path style="opacity:1" fill="#0c1225" d="M 63.5,314.5 C 63.8966,313.475 64.5632,313.308 65.5,314C 64.9056,314.464 64.2389,314.631 63.5,314.5 Z"/></g>
<g><path style="opacity:1" fill="#0c1225" d="M 261.5,314.5 C 261.897,313.475 262.563,313.308 263.5,314C 262.906,314.464 262.239,314.631 261.5,314.5 Z"/></g>
<g><path style="opacity:1" fill="#0c1225" d="M 255.5,315.5 C 255.897,314.475 256.563,314.308 257.5,315C 256.906,315.464 256.239,315.631 255.5,315.5 Z"/></g>
<g><path style="opacity:1" fill="#0c1225" d="M 63.5,316.5 C 64.2506,315.427 65.2506,315.26 66.5,316C 65.552,316.483 64.552,316.649 63.5,316.5 Z"/></g>
<g><path style="opacity:1" fill="#0c1225" d="M 255.5,315.5 C 254.399,316.598 253.066,316.765 251.5,316C 252.793,315.51 254.127,315.343 255.5,315.5 Z"/></g>
<g><path style="opacity:1" fill="#0c1225" d="M 261.5,316.5 C 261.897,315.475 262.563,315.308 263.5,316C 262.906,316.464 262.239,316.631 261.5,316.5 Z"/></g>
<g><path style="opacity:1" fill="#0c1225" d="M 71.5,317.5 C 71.8966,316.475 72.5632,316.308 73.5,317C 72.9056,317.464 72.2389,317.631 71.5,317.5 Z"/></g>
<g><path style="opacity:1" fill="#0c1225" d="M 79.5,317.5 C 79.8966,316.475 80.5632,316.308 81.5,317C 80.9056,317.464 80.2389,317.631 79.5,317.5 Z"/></g>
<g><path style="opacity:1" fill="#0c1225" d="M 247.5,316.5 C 248.833,317.167 248.833,317.167 247.5,316.5 Z"/></g>
<g><path style="opacity:1" fill="#0c1225" d="M 79.5,317.5 C 79.5,317.833 79.5,318.167 79.5,318.5C 78.8299,318.019 78.8299,317.685 79.5,317.5 Z"/></g>
<g><path style="opacity:1" fill="#0c1225" d="M 253.5,318.5 C 254.167,317.167 254.833,317.167 255.5,318.5C 254.833,318.5 254.167,318.5 253.5,318.5 Z"/></g>
</svg>
